<!DOCTYPE svg PUBLIC "-//W3C//DTD SVG 20010904//EN" "http://www.w3.org/TR/2001/REC-SVG-20010904/DTD/svg10.dtd">
<svg version="1.0" xmlns="http://www.w3.org/2000/svg" width="1200px" height="946px" viewBox="0 0 12000 9460" preserveAspectRatio="xMidYMid meet">
<g id="layer101" fill="#060303" stroke="none">
 <path d="M6555 8827 c-186 -114 -293 -196 -340 -260 -15 -22 -46 -47 -69 -57 -80 -35 -174 -173 -222 -325 -29 -92 -26 -302 5 -410 48 -162 52 -181 54 -237 1 -31 -2 -60 -6 -64 -10 -11 -91 70 -133 133 -36 55 -64 158 -64 240 0 41 -2 44 -17 32 -39 -33 -43 -69 -43 -351 0 -264 -8 -399 -31 -503 -57 -264 -159 -409 -304 -431 -93 -14 -126 2 -161 82 -25 56 -46 68 -63 35 -6 -10 -15 -135 -21 -277 -6 -142 -13 -275 -16 -294 -15 -87 -60 -180 -88 -180 -19 0 -49 72 -101 242 -14 48 -30 90 -36 93 -39 24 -100 -87 -178 -323 -32 -97 -54 -148 -64 -150 -20 -4 -192 92 -453 253 -130 80 -230 141 -239 144 -5 2 -12 7 -15 11 -3 3 -34 24 -70 45 -64 38 -232 143 -605 378 -104 66 -291 182 -415 259 -124 77 -237 148 -252 159 -15 10 -30 19 -33 19 -3 0 -27 15 -53 33 -26 18 -54 36 -62 40 -8 4 -67 41 -130 84 -119 81 -139 104 -160 185 -17 62 -40 140 -50 163 -40 95 -67 146 -112 212 -69 101 -277 309 -364 365 -338 216 -678 237 -932 59 -50 -36 -187 -169 -234 -229 -28 -35 -77 -138 -101 -210 -19 -58 -22 -89 -22 -222 0 -135 3 -164 23 -221 21 -61 108 -226 135 -255 7 -7 23 -27 37 -46 112 -152 380 -330 590 -393 30 -9 65 -21 77 -26 13 -5 72 -14 131 -21 86 -9 134 -9 233 1 68 7 138 13 155 14 30 1 100 -30 224 -100 30 -17 100 -55 155 -86 55 -30 154 -85 220 -122 66 -37 140 -79 165 -93 205 -114 651 -374 780 -455 112 -70 118 -74 330 -212 91 -59 188 -122 215 -140 28 -18 73 -45 100 -60 76 -41 75 -39 75 -129 0 -86 16 -176 56 -318 30 -107 30 -112 2 -105 -13 3 -57 12 -98 21 -41 9 -102 22 -135 30 -33 8 -89 22 -125 30 -223 53 -402 155 -552 314 -85 90 -105 135 -118 259 -6 54 -13 104 -15 111 -7 20 -23 6 -46 -40 -39 -76 -35 -271 8 -413 27 -90 87 -239 115 -288 15 -26 28 -51 28 -54 0 -13 120 -154 200 -234 86 -86 246 -219 265 -219 20 -1 80 -59 70 -68 -10 -9 -205 -63 -300 -83 -193 -39 -503 -54 -645 -31 -163 27 -347 109 -455 202 -104 91 -124 76 -56 -39 21 -36 42 -77 46 -91 10 -35 131 -193 206 -270 71 -73 188 -158 294 -215 39 -20 75 -40 80 -44 6 -4 55 -27 110 -50 55 -23 109 -47 120 -52 45 -20 209 -79 352 -125 84 -27 153 -52 153 -55 0 -3 -37 -18 -83 -33 -61 -19 -104 -26 -161 -26 -107 0 -182 20 -311 81 -22 10 -41 15 -43 10 -4 -12 38 -79 79 -126 106 -121 332 -237 474 -245 l20 -1 -20 -12 c-12 -7 -60 -12 -125 -12 -99 0 -109 2 -175 34 -83 40 -125 53 -125 40 0 -5 13 -30 30 -57 34 -54 33 -55 -50 -99 -149 -80 -218 -118 -252 -140 -21 -12 -40 -23 -42 -23 -12 0 -516 -298 -656 -387 -30 -20 -71 -46 -90 -58 -678 -433 -881 -594 -1022 -807 -118 -179 -128 -269 -29 -255 46 6 79 27 281 177 156 117 223 160 415 269 114 65 130 74 225 124 52 28 118 63 145 79 55 31 432 218 439 218 4 0 67 28 211 95 28 12 73 33 100 45 28 12 208 100 400 195 193 95 382 183 420 195 64 20 94 22 375 26 168 2 384 8 480 13 215 13 400 14 400 3 0 -31 -178 -214 -275 -284 -27 -20 -86 -55 -130 -78 -106 -57 -116 -71 -62 -90 50 -18 114 -25 222 -25 112 0 167 7 240 29 28 9 52 16 54 16 2 0 -5 -12 -14 -27 -26 -41 -101 -109 -140 -127 -19 -10 -35 -21 -35 -25 0 -20 31 -33 65 -27 19 4 35 3 35 -2 0 -4 -11 -37 -25 -73 -51 -126 -82 -229 -112 -369 -23 -108 -26 -489 -4 -585 16 -75 49 -193 60 -220 31 -74 90 -188 119 -230 51 -74 160 -183 217 -216 66 -38 72 -37 36 9 -55 67 -76 228 -45 345 30 116 54 149 273 366 114 113 216 217 227 231 41 53 96 142 115 188 12 26 27 61 34 77 8 17 22 57 32 88 17 58 43 77 43 32 0 -33 46 -147 84 -210 29 -47 91 -115 105 -115 4 0 7 44 6 98 0 144 3 151 270 667 54 105 105 202 112 218 8 15 17 27 20 27 14 0 -8 -215 -32 -320 -37 -159 -65 -308 -65 -350 0 -72 66 -226 93 -217 7 2 24 46 38 98 41 147 108 285 211 438 82 122 104 111 101 -52 -2 -164 -31 -305 -123 -602 -92 -294 -101 -427 -43 -603 19 -57 50 -99 64 -85 5 5 18 65 29 133 41 240 111 416 255 635 61 94 153 225 182 260 31 38 132 201 157 255 l31 65 0 185 0 185 -44 90 c-24 50 -56 128 -71 175 -16 47 -42 119 -58 160 -83 210 -86 221 -86 402 -1 91 2 170 6 174 7 7 135 -67 228 -131 25 -17 146 -95 270 -172 443 -277 555 -350 969 -633 l110 -75 27 -75 c194 -551 255 -651 509 -838 39 -28 75 -55 80 -60 48 -39 150 -83 230 -97 79 -15 108 -16 235 -5 156 13 220 25 220 41 0 11 -59 68 -220 209 -58 51 -154 138 -214 194 l-108 100 5 46 c3 25 13 90 22 145 9 55 19 119 22 142 5 35 10 43 32 47 44 9 349 26 475 26 l118 0 152 -152 c228 -229 378 -368 397 -368 4 0 10 4 13 9 6 10 -8 282 -25 486 -14 168 2 142 -263 425 -34 36 -77 84 -97 107 l-37 41 -368 11 c-515 16 -650 26 -711 49 -116 44 -486 277 -834 526 -74 52 -143 101 -153 108 -10 7 -31 22 -45 34 -14 11 -100 72 -191 136 -145 101 -258 177 -657 442 -51 34 -87 64 -81 67 6 4 48 10 92 14 103 8 178 27 269 66 108 47 147 58 327 89 208 36 212 37 279 60 72 26 98 25 152 -3 107 -56 273 -97 393 -97 154 0 378 59 498 131 76 46 146 116 178 179 22 42 23 72 5 141 l-7 26 244 6 c301 7 395 22 623 99 105 35 248 103 271 129 14 16 10 16 -68 -1 -46 -11 -121 -29 -168 -40 -403 -101 -626 -133 -809 -114 l-61 7 1 36 c3 90 0 88 154 140 125 42 346 126 400 151 11 5 59 25 106 44 47 19 115 49 151 65 37 17 68 31 71 31 14 0 301 139 402 195 294 161 532 411 689 722 91 181 124 375 106 627 -11 152 -23 198 -97 366 -38 87 -145 229 -246 327 -207 202 -455 328 -807 412 -281 66 -278 66 -1015 66 -711 0 -732 -1 -756 -47 -21 -39 -2 -44 236 -73 719 -84 887 -122 1240 -280 270 -120 426 -217 554 -344 116 -116 178 -209 222 -336 22 -63 24 -86 24 -235 -1 -168 -5 -196 -52 -330 -50 -144 -142 -297 -230 -381 -26 -25 -93 -73 -148 -105 -124 -74 -333 -179 -341 -171 -3 3 5 45 19 94 32 114 41 168 29 188 -7 14 -12 12 -28 -17 -11 -18 -28 -53 -38 -78 -11 -25 -39 -87 -63 -138 -42 -89 -46 -94 -96 -117 -203 -93 -785 -302 -814 -291 -7 3 -21 23 -29 43 -89 218 -151 310 -339 499 -108 108 -172 162 -222 188 -56 28 -58 16 -9 -43 19 -23 47 -67 62 -99 26 -53 28 -68 32 -212 4 -143 3 -157 -16 -180 -19 -23 -21 -24 -63 -10 -34 12 -102 15 -309 14 -282 -1 -442 -17 -650 -65 -162 -37 -150 -38 -205 23 -123 137 -206 315 -230 493 -13 102 -36 210 -45 219 -24 24 -79 -60 -123 -184 -50 -143 -52 -158 -52 -360 0 -154 4 -210 18 -265 30 -120 30 -114 -2 -144 -30 -28 -146 -101 -160 -101 -4 0 -22 21 -39 48 -17 26 -45 56 -61 67 -17 11 -31 23 -31 28 0 4 -4 7 -10 7 -5 0 -43 21 -84 46 -76 47 -128 56 -134 24 -1 -9 15 -43 36 -76 57 -88 75 -150 76 -268 1 -84 -2 -107 -19 -133 -10 -18 -25 -33 -32 -33 -39 0 -109 174 -132 328 -24 161 -7 383 41 532 23 72 67 145 87 145 7 0 41 -52 76 -115 34 -63 68 -116 74 -118 32 -11 111 132 139 251 20 80 38 222 35 262 -1 11 3 41 8 66 10 43 13 47 52 58 83 23 172 54 183 62 7 6 32 -14 71 -55 97 -104 154 -199 193 -320 13 -39 27 -65 34 -63 22 7 55 84 67 156 19 123 -7 280 -70 424 l-21 48 29 47 c55 89 53 128 -11 168 -28 18 -59 27 -109 31 -82 7 -92 16 -158 142 -102 195 -125 369 -81 593 23 119 18 148 -24 148 -53 0 -186 -141 -241 -257 -60 -125 -74 -97 -28 60 21 76 26 113 26 207 0 119 -7 158 -66 340 -63 195 -62 189 -62 335 1 150 5 171 61 291 42 91 45 108 19 111 -11 1 -29 -3 -40 -10z m-5343 -862 c20 -14 42 -25 47 -25 6 0 11 -4 11 -8 0 -4 25 -21 55 -37 30 -17 55 -33 55 -37 0 -5 5 -8 11 -8 6 0 42 -20 80 -45 38 -25 73 -45 78 -45 24 0 50 -64 82 -200 7 -33 33 -133 63 -245 7 -27 17 -58 21 -67 8 -19 8 -19 -234 -163 l-164 -97 -51 22 c-28 13 -79 35 -113 51 -35 16 -65 29 -69 29 -3 0 -20 6 -37 14 -18 8 -48 21 -67 29 -34 14 -38 22 -109 203 -40 104 -79 203 -87 221 -8 17 -14 37 -14 45 0 17 381 387 400 388 3 0 22 -11 42 -25z m-392 -664 c17 -40 30 -75 27 -77 -3 -3 -44 88 -65 146 -15 43 11 -5 38 -69z"/>
 </g>
<g id="layer102" fill="#fefefe" stroke="none">
 <path d="M6403 8645 c-178 -129 -254 -283 -252 -514 0 -58 4 -127 8 -153 14 -87 -26 -93 -54 -9 -13 41 -16 78 -12 203 3 84 8 169 12 188 7 31 6 34 -8 22 -35 -29 -106 -196 -123 -287 -20 -108 -10 -206 38 -368 21 -74 31 -132 35 -212 5 -100 8 -117 40 -181 34 -70 39 -104 17 -111 -7 -2 -39 34 -72 79 -33 46 -99 124 -146 173 l-85 90 -1 -180 c0 -298 -31 -458 -120 -635 -42 -83 -140 -181 -196 -198 -49 -14 -192 -16 -228 -2 -16 6 -27 6 -31 -1 -4 -5 -11 -92 -16 -192 -11 -233 -41 -354 -103 -420 -24 -26 -26 -34 -20 -78 6 -45 5 -49 -14 -49 -34 0 -125 145 -177 283 l-22 59 -37 -96 c-55 -145 -76 -249 -76 -375 0 -130 16 -215 75 -391 68 -202 60 -239 -43 -185 -62 33 -194 153 -248 226 -19 27 -40 47 -44 44 -21 -13 14 -346 44 -433 7 -20 17 -57 21 -81 l7 -43 -33 7 c-52 11 -157 54 -219 91 -52 30 -157 131 -226 217 l-31 38 8 -57 c24 -175 122 -421 192 -480 16 -14 27 -27 24 -31 -13 -12 -55 8 -107 53 -67 57 -94 69 -213 93 -331 68 -417 91 -530 144 -111 52 -228 129 -308 203 -33 30 -63 54 -69 54 -20 0 16 -113 72 -225 113 -224 256 -382 488 -535 144 -95 190 -129 190 -141 0 -33 -416 -157 -620 -184 -120 -17 -359 -19 -470 -5 -109 14 -206 39 -279 71 -35 16 -65 29 -67 29 -30 0 88 -132 221 -247 151 -130 366 -235 898 -438 115 -44 158 -74 141 -102 -14 -23 -59 -49 -147 -85 -57 -23 -93 -31 -174 -35 -57 -3 -103 -9 -103 -13 0 -7 181 -95 215 -104 11 -3 62 -10 114 -16 92 -10 131 -22 131 -40 0 -5 -16 -25 -36 -44 -44 -43 -106 -62 -231 -72 -51 -3 -91 -10 -88 -14 2 -4 48 -26 101 -49 234 -103 414 -120 1092 -101 249 7 455 11 457 9 8 -9 -59 -137 -104 -198 -49 -65 -207 -225 -266 -268 l-30 -22 51 0 c77 -1 209 27 279 58 76 35 114 74 164 171 61 116 103 141 86 52 -9 -47 -101 -238 -155 -320 l-41 -63 68 50 c66 48 108 89 221 220 51 58 92 79 92 46 0 -32 -89 -163 -165 -244 -44 -46 -114 -106 -155 -133 -98 -65 -131 -115 -179 -278 -12 -41 -26 -86 -31 -100 -40 -114 -45 -162 -45 -455 l0 -290 33 -94 c40 -116 110 -260 155 -323 l34 -47 6 82 c16 207 78 299 390 581 117 105 159 159 225 286 106 205 143 337 167 611 18 200 20 209 44 209 16 0 19 -16 25 -163 13 -321 32 -462 73 -523 21 -33 29 -30 36 11 7 45 125 278 214 425 39 63 98 169 133 235 70 134 97 175 111 175 21 0 40 -76 46 -174 6 -117 -7 -239 -41 -381 -13 -55 -27 -127 -30 -160 l-7 -60 69 130 c79 150 112 206 199 329 l63 90 0 127 c0 103 3 131 16 143 16 17 44 22 44 9 0 -5 5 -37 10 -73 21 -137 50 -439 50 -524 0 -172 -41 -375 -131 -649 -46 -139 -36 -132 45 29 60 120 195 330 268 415 93 109 172 249 213 375 28 87 33 214 12 297 l-13 47 -21 -44 c-27 -54 -80 -116 -100 -116 -13 0 -14 8 -9 42 4 23 11 47 15 53 19 24 33 121 28 189 -6 69 -14 99 -96 337 -22 64 -45 153 -51 198 -7 45 -14 81 -15 79 -2 -2 -15 -39 -29 -83 -32 -97 -52 -127 -67 -105 -16 24 -2 129 30 215 82 219 93 254 98 310 4 47 1 69 -12 94 l-17 33 -24 -23 c-13 -12 -32 -45 -43 -73 -24 -64 -45 -79 -66 -48 -10 13 -27 22 -41 22 -34 0 -60 -60 -113 -252 -59 -215 -92 -296 -159 -388 -72 -101 -212 -162 -296 -130 -39 14 -31 28 20 36 54 8 150 69 192 122 35 44 102 156 102 171 0 5 -32 27 -71 47 -49 26 -89 58 -134 107 l-64 70 -45 -91 c-24 -50 -58 -111 -74 -134 -48 -70 -137 -147 -208 -180 -55 -26 -78 -31 -142 -31 -42 0 -90 5 -105 12 -45 18 -132 107 -237 241 -163 210 -214 247 -448 329 -185 64 -253 102 -332 181 -67 67 -121 161 -160 278 -21 62 -26 116 -10 110 5 -1 25 -25 42 -53 18 -27 59 -70 90 -95 104 -83 330 -201 433 -224 l30 -7 -40 41 c-43 44 -91 82 -224 176 -158 111 -238 200 -298 330 -36 80 -45 254 -13 254 5 0 31 -37 57 -82 61 -106 179 -228 255 -263 54 -24 148 -44 148 -31 0 4 -11 29 -25 56 -53 104 -76 198 -77 308 0 96 2 108 30 165 39 79 86 136 101 122 6 -6 15 -55 21 -109 22 -209 60 -279 232 -417 112 -90 114 -90 104 24 -12 124 -37 219 -136 517 -100 300 -95 276 -94 460 1 129 6 186 23 264 43 198 134 435 229 594 136 227 347 416 564 506 134 56 189 64 443 71 277 8 317 14 383 63 28 20 83 54 122 75 39 21 73 44 76 51 3 7 -9 34 -25 59 -17 25 -31 48 -31 51 0 3 -14 34 -30 68 -17 35 -43 99 -57 143 -24 73 -27 95 -28 252 -1 95 -4 175 -7 178 -10 10 -75 -77 -109 -145 -19 -38 -34 -86 -37 -115 -3 -45 0 -55 30 -95 19 -25 43 -60 54 -78 16 -29 17 -34 4 -42 -17 -11 -44 -5 -77 16 -24 15 -92 126 -125 202 -11 26 -26 62 -34 79 -31 68 -56 191 -61 298 -6 120 5 169 35 163 14 -3 18 -19 23 -95 8 -112 18 -171 30 -178 16 -11 24 50 23 180 -1 126 -3 135 -46 270 -70 213 -82 275 -82 405 0 86 4 128 18 168 10 29 16 55 14 58 -2 2 -32 -16 -65 -41z m-810 -6362 c-8 -276 -39 -500 -83 -598 -5 -11 -23 -53 -40 -94 -64 -154 -114 -222 -295 -402 -169 -168 -233 -224 -244 -213 -8 7 -18 131 -27 324 -13 279 31 502 141 719 58 116 124 193 221 263 108 77 261 158 300 158 l32 0 -5 -157z"/>
 <path d="M5198 2141 c-48 -56 -120 -195 -151 -292 -54 -165 -71 -279 -71 -492 -1 -162 2 -199 13 -207 22 -13 54 8 167 108 147 131 224 240 298 426 34 83 80 246 72 254 -2 2 -30 -8 -62 -21 -71 -30 -125 -41 -153 -32 -28 9 -26 24 6 60 60 64 104 118 100 121 -2 3 -24 -7 -48 -21 -56 -31 -61 -31 -53 3 7 27 7 27 -34 -10 -39 -35 -72 -49 -72 -30 0 5 7 29 16 54 8 26 14 63 12 84 l-3 38 -37 -43z"/>
 <path d="M955 8254 c-255 -62 -491 -330 -525 -596 -27 -219 84 -478 286 -668 78 -72 140 -114 264 -176 237 -118 410 -149 679 -124 l133 12 77 -38 c90 -44 251 -133 611 -337 505 -285 824 -478 1085 -655 346 -236 393 -264 449 -272 40 -5 42 -7 87 -94 64 -126 153 -234 250 -306 77 -57 99 -69 99 -52 0 4 -6 41 -14 82 -33 175 -28 462 8 498 14 15 18 14 43 -4 16 -12 54 -58 86 -103 86 -121 206 -245 222 -229 2 2 -5 19 -14 39 -39 79 -84 251 -101 379 -15 124 -15 123 -67 150 -26 13 -140 78 -253 144 -194 113 -304 180 -670 411 -177 112 -460 290 -835 525 -480 301 -668 426 -717 477 -29 29 -40 51 -48 93 -52 277 -253 554 -524 720 -191 116 -436 166 -611 124z m211 -213 c7 -7 159 -96 278 -162 10 -6 34 -19 52 -30 19 -10 51 -28 72 -40 67 -38 49 5 161 -382 34 -114 61 -211 61 -216 0 -5 -102 -66 -227 -136 -167 -92 -235 -125 -253 -122 -14 3 -113 41 -220 85 l-195 79 -28 57 c-16 32 -64 146 -108 254 -63 156 -77 198 -67 208 7 6 99 90 203 185 105 96 203 186 220 201 32 31 37 32 51 19z"/>
 <path d="M8868 8043 c-68 -8 -40 -20 60 -26 167 -11 510 -66 639 -102 365 -105 796 -311 987 -472 124 -105 225 -250 276 -398 32 -91 43 -186 37 -311 -5 -135 -28 -231 -83 -363 -116 -274 -239 -395 -554 -547 -227 -109 -242 -118 -288 -175 -123 -153 -181 -216 -246 -268 -80 -63 -214 -137 -272 -149 l-39 -8 0 -52 c1 -71 10 -78 82 -57 74 22 362 134 508 200 17 7 58 25 93 39 34 15 91 39 125 55 34 16 96 43 137 61 251 109 445 225 591 353 234 205 406 499 464 792 14 72 16 121 12 250 -3 88 -10 174 -15 190 -6 17 -21 59 -33 95 -54 164 -130 282 -269 420 -256 256 -566 385 -1100 456 -99 13 -223 17 -600 19 -261 1 -492 1 -512 -2z"/>
 <path d="M7103 6795 c-56 -15 -175 -73 -208 -100 -19 -16 -18 -16 20 -11 22 4 69 9 104 13 62 6 63 6 52 -15 -13 -25 -63 -56 -116 -72 -24 -7 -166 -15 -355 -20 -444 -12 -516 -23 -690 -110 -141 -71 -265 -178 -379 -329 -126 -166 -188 -295 -260 -536 -57 -190 -74 -297 -68 -430 6 -126 24 -208 91 -407 35 -105 39 -119 76 -248 34 -118 60 -277 60 -364 0 -85 -27 -218 -56 -280 -33 -69 -45 -34 -20 57 29 107 29 125 1 151 -15 14 -59 44 -98 67 -150 89 -211 161 -269 321 l-33 93 -3 -68 c-6 -147 43 -302 134 -418 36 -45 45 -62 36 -71 -9 -9 -21 -8 -50 1 -22 7 -48 10 -60 7 -42 -14 -155 14 -244 58 -49 25 -88 41 -88 36 0 -13 116 -115 219 -193 52 -39 139 -112 192 -164 54 -51 105 -93 113 -93 22 0 20 -13 -5 -36 -16 -15 -35 -18 -92 -18 -86 1 -177 28 -304 89 -51 25 -98 45 -105 45 -6 0 1 -14 17 -30 36 -38 217 -127 345 -170 235 -79 322 -145 486 -367 145 -196 223 -234 361 -173 99 43 177 133 248 283 59 124 91 267 125 565 25 218 69 342 121 342 16 0 18 -5 13 -27 -4 -16 -13 -42 -21 -60 -7 -18 -13 -34 -13 -37 0 -3 26 -5 58 -4 40 0 76 -7 121 -26 35 -14 66 -25 67 -23 2 1 6 21 10 43 6 38 4 42 -24 60 -46 29 -136 118 -124 122 6 2 50 -9 99 -24 110 -34 262 -38 358 -9 l60 18 -65 22 c-77 26 -143 58 -187 92 -70 52 -26 56 127 13 58 -16 159 -37 224 -46 103 -14 132 -15 205 -4 90 13 181 43 164 53 -5 3 -79 13 -164 21 -250 25 -416 70 -516 138 -48 33 -78 74 -46 64 135 -42 339 -84 543 -113 251 -35 638 -19 803 34 54 17 57 22 87 141 46 182 145 309 375 481 103 77 184 128 217 136 13 4 32 13 43 21 19 15 18 17 -40 71 -87 82 -195 149 -289 179 -70 23 -104 27 -251 31 -652 20 -1278 -179 -1660 -529 -77 -70 -185 -219 -242 -333 -60 -120 -125 -304 -182 -515 -126 -465 -186 -590 -302 -624 -87 -26 -167 18 -240 132 -32 50 -19 56 36 15 28 -21 77 -47 108 -58 52 -18 61 -18 84 -5 50 28 49 37 -15 170 -58 121 -131 288 -158 360 -93 250 -159 470 -209 693 -41 183 -39 504 4 702 80 363 251 612 506 735 138 67 234 88 445 100 272 15 368 30 500 78 119 42 288 175 319 250 12 28 12 35 0 47 -22 22 -69 26 -126 10z m376 -1420 c192 -68 331 -99 331 -72 0 8 -10 21 -22 30 -19 12 -21 19 -12 34 21 35 53 28 100 -21 32 -34 44 -55 46 -79 3 -83 -10 -127 -40 -127 -26 0 -42 20 -42 52 0 32 -6 34 -125 42 -87 6 -153 25 -228 65 -60 33 -155 102 -161 118 -6 13 6 10 153 -42z m-224 -189 c116 -41 125 -43 125 -17 0 28 16 34 47 19 32 -15 73 -72 73 -100 0 -11 -13 -33 -30 -49 -23 -24 -37 -30 -62 -27 -29 3 -33 7 -36 35 -3 31 -7 34 -60 49 -85 24 -252 119 -252 144 0 10 66 -8 195 -54z m663 -209 c44 -45 50 -89 20 -146 -30 -58 -71 -89 -93 -71 -21 17 -19 42 5 73 11 14 20 27 20 30 0 2 -32 -6 -72 -19 -208 -69 -523 -47 -895 62 -51 15 -18 19 60 8 243 -35 693 -46 783 -19 27 8 58 21 69 29 19 14 19 15 1 35 -15 17 -16 23 -6 36 22 27 73 19 108 -18z"/>
 <path d="M7113 6512 l-71 -56 47 -56 c61 -71 107 -138 153 -225 l37 -70 1 105 c0 59 -7 134 -15 170 -16 68 -64 191 -74 189 -3 0 -38 -26 -78 -57z"/>
 <path d="M6485 6290 c-146 -13 -154 -26 -74 -117 28 -32 73 -93 101 -135 28 -43 54 -78 59 -78 4 0 10 8 13 18 6 19 26 237 26 290 0 36 11 34 -125 22z"/>
 <path d="M5894 6178 c-39 -29 -93 -78 -118 -106 -18 -21 -18 -21 53 -67 40 -25 92 -64 117 -87 l45 -42 -7 104 c-9 138 -25 214 -44 218 -9 1 -29 -8 -46 -20z"/>
 <path d="M6946 6093 c-64 -196 -68 -483 -10 -675 7 -25 19 -23 119 17 48 20 116 45 151 56 35 11 67 25 70 31 3 5 -9 26 -28 46 -135 142 -210 299 -264 550 -7 35 -21 26 -38 -25z"/>
 <path d="M8610 5818 c0 -79 -5 -160 -9 -182 -12 -49 -8 -58 37 -81 20 -11 90 -73 154 -138 l117 -118 30 17 c47 28 55 59 33 124 -25 72 -64 148 -119 235 -85 131 -211 285 -234 285 -5 0 -9 -64 -9 -142z"/>
 <path d="M5610 5803 c-11 -26 -28 -72 -37 -102 l-16 -55 27 -23 c14 -12 45 -28 69 -35 47 -14 161 -17 173 -5 4 4 -10 26 -32 50 -55 57 -97 114 -123 164 -11 23 -25 44 -30 48 -6 3 -19 -16 -31 -42z"/>
 <path d="M9809 5645 c-5 -5 -182 -68 -449 -161 -85 -30 -162 -57 -170 -60 -10 -4 2 -14 36 -29 28 -12 69 -39 91 -59 50 -45 75 -45 156 -5 92 47 143 84 230 168 96 93 144 151 125 151 -8 0 -17 -2 -19 -5z"/>
 <path d="M6450 5388 c0 -2 12 -39 25 -83 14 -44 28 -106 32 -137 3 -32 9 -58 13 -58 5 0 40 25 80 56 l72 57 -49 49 c-52 53 -174 135 -173 116z"/>
 <path d="M5500 5255 l0 -90 64 -13 c35 -6 71 -15 81 -19 19 -7 -56 109 -114 177 l-30 35 -1 -90z"/>
 <path d="M9089 5325 c-20 -7 -50 -20 -68 -29 l-32 -17 89 -97 c48 -53 113 -128 144 -167 30 -38 62 -76 71 -84 28 -22 39 29 35 159 -3 112 -4 116 -36 163 -57 82 -118 104 -203 72z"/>
 <path d="M6240 4975 c0 -13 49 -102 64 -114 12 -10 18 -8 32 14 16 25 16 27 -2 44 -24 23 -94 65 -94 56z"/>
 <path d="M9030 4820 c0 -42 -10 -112 -26 -189 -9 -44 9 -35 36 19 24 47 27 152 5 190 -14 24 -14 24 -15 -20z"/>
 <path d="M6066 4728 c25 -51 98 -168 104 -168 10 0 42 90 37 104 -5 13 -135 96 -150 96 -4 0 0 -15 9 -32z"/>
 <path d="M8474 4605 c-11 -29 4 -46 38 -43 37 4 45 19 23 42 -21 20 -54 21 -61 1z"/>
 <path d="M5976 4404 c7 -32 59 -161 74 -184 7 -12 12 -7 25 22 26 64 21 80 -45 138 -58 50 -61 51 -54 24z"/>
 <path d="M7005 4160 c-33 -16 -72 -29 -87 -30 -24 0 -28 -4 -28 -30 0 -17 20 -74 45 -127 60 -127 134 -371 135 -438 0 -17 7 -40 15 -52 18 -26 187 -138 395 -263 417 -251 844 -524 1067 -683 126 -89 108 -59 202 -323 50 -142 112 -287 163 -386 48 -93 126 -175 266 -281 181 -136 272 -163 502 -151 74 3 143 10 153 13 13 5 -9 29 -105 111 -68 57 -185 160 -261 229 l-138 125 5 45 c42 343 52 386 94 403 17 6 148 13 339 16 l313 5 220 -216 c121 -119 230 -221 241 -228 20 -10 21 -9 16 22 -3 19 -12 135 -18 259 l-13 225 -100 110 c-56 61 -136 149 -178 196 l-78 86 -282 7 c-156 4 -392 13 -524 21 l-242 14 -71 35 c-171 87 -553 333 -876 564 -274 197 -491 348 -770 537 -104 71 -216 148 -249 172 -32 24 -66 43 -75 42 -9 0 -43 -14 -76 -29z"/>
 <path d="M5830 4109 c0 -8 14 -68 30 -134 16 -66 30 -133 30 -150 0 -16 7 -41 14 -54 l13 -24 16 24 c21 34 67 172 67 203 0 15 -9 32 -22 41 -22 15 -91 65 -129 94 -16 11 -19 11 -19 0z"/>
 <path d="M6722 4110 c-40 -16 -54 -91 -31 -161 17 -49 91 -159 107 -159 20 0 7 44 -24 86 -20 25 -24 40 -19 62 7 34 39 72 60 72 23 0 27 18 11 48 -25 49 -63 68 -104 52z"/>
 <path d="M6384 3998 c-16 -25 -34 -142 -50 -323 -19 -218 -13 -276 37 -344 37 -52 127 -112 170 -114 31 -2 33 0 41 43 11 58 4 120 -27 248 -25 100 -25 105 -10 159 18 62 11 80 -32 85 -14 2 -30 10 -36 19 -16 25 1 85 33 119 25 27 35 31 58 25 60 -15 112 -89 142 -201 21 -81 26 -92 37 -81 27 28 -33 172 -114 271 -60 74 -117 106 -189 106 -29 0 -56 -5 -60 -12z"/>
 <path d="M3100 2923 c-30 -20 -192 -116 -360 -213 -436 -253 -476 -278 -870 -541 -413 -275 -575 -394 -666 -487 -101 -104 -249 -320 -231 -338 9 -10 88 42 192 126 255 206 780 508 1250 719 219 99 331 150 455 209 52 24 131 61 175 82 44 21 132 62 195 92 105 51 236 107 318 138 46 18 40 34 -20 47 -73 17 -267 116 -321 164 -25 21 -49 39 -54 38 -4 0 -33 -16 -63 -36z"/>
 </g>

</svg>